<?xml version="1.0" encoding="UTF-8" standalone="no"?>
<svg
   width="143"
   height="143"
   viewBox="0 0 143 143"
   fill="none"
   version="1.1"
   id="svg6"
   sodipodi:docname="logo1.svg"
   inkscape:version="1.2.1 (9c6d41e410, 2022-07-14)"
   xmlns:inkscape="http://www.inkscape.org/namespaces/inkscape"
   xmlns:sodipodi="http://sodipodi.sourceforge.net/DTD/sodipodi-0.dtd"
   xmlns="http://www.w3.org/2000/svg"
   xmlns:svg="http://www.w3.org/2000/svg">
  <defs
     id="defs10" />
  <sodipodi:namedview
     id="namedview8"
     pagecolor="#ffffff"
     bordercolor="#000000"
     borderopacity="0.25"
     inkscape:showpageshadow="2"
     inkscape:pageopacity="0.0"
     inkscape:pagecheckerboard="0"
     inkscape:deskcolor="#d1d1d1"
     showgrid="false"
     inkscape:zoom="3.375"
     inkscape:cx="74.222222"
     inkscape:cy="74.666667"
     inkscape:window-width="1920"
     inkscape:window-height="1017"
     inkscape:window-x="-8"
     inkscape:window-y="-8"
     inkscape:window-maximized="1"
     inkscape:current-layer="svg6" />
  <path
     d="m 105.488,102.43407 c -0.118,-2.3816 -0.203,-4.768499 -0.166,-7.152799 0.027,-1.7948 1.998,-3.3719 4.056,-3.4144 1.847,-0.0372 3.509,1.3222 3.591,3.1702 0.105,2.4612 1.008,17.246899 1.799,26.274899 0.069,0.794 1.641,0.746 2.158,0.698 2.267,-0.212 4.966,-1.229 7.341,-1.76 5.541,-2.124 10.168,-3.378 15.303,-5.045 2.253,-0.722 3.43,-1.593 3.43,-4.514 0,-10.2933 -0.567,-28.878799 -0.768,-33.604899 -0.021,-0.5177 -0.132,-1.0859 -0.385,-1.5267 -1.749,-3.0559 -24.071,-40.9173 -26.443,-45.0406 -0.311,-0.539 -0.414,-1.2559 -0.435,-1.8984 -0.056,-1.8134 0,-3.6268 -0.024,-5.4402 -0.019,-1.4816 -0.388,-2.7534 -1.839,-3.5472 -1.945,-1.06736 -3.924,-1.92229 -6.166,-2.11877 -3.145,-0.27347 -3.517,0.02921 -3.52,3.14627 0,0.2655 0,0.531 0,0.7965 0,1.8878 0,3.7729 0,5.735 -0.451,-0.0478 -0.715,-0.0398 -0.958,-0.1062 -7.801901,-2.0922 -15.601301,-4.2004 -23.408601,-6.2819 -0.7863,-0.2098 -0.876,-0.6797 -0.8681,-1.3727 0.0237,-2.03114 0.0475,-4.06492 -0.0607,-6.0934 -0.0264,-0.51508 -0.4274,-1.27178 -0.8549,-1.46294 -1.9577,-0.86821 -3.9445,-1.731111 -6.0025,-2.2886769 -1.7758,-0.4805683 -3.4776,1.1230969 -3.4829,2.9604069 -0.0026,1.37267 0.0159,2.74269 -0.0105,4.11536 -0.0053,0.32923 -0.0633,0.73546 -0.2586,0.97176 -1.3615,1.6488 -2.8417,3.20469 -4.1451,4.89859 -4.3298,5.6182 -28.7965,37.8507 -31.3163,41.0714 -1.8997,2.4267 -4.0237,4.6835 -5.8179,7.1819 -0.8364,1.163 -1.4987,1.1922 -2.6042,0.6744 -2.4195,-1.1363 -4.8786,-2.1825 -7.3033,-3.3055 -5.3245,-2.464 -8.7572195,-6.4572 -9.4775295,-12.4231 -0.42744,-3.5286 0.68337,-6.5368 3.7466295,-8.6104 2.847,-1.9276 6.1715,-2.533 9.4168,-3.2074 3.4274,-0.7142 6.7968,-1.5638 9.8021,-3.356 3.306,-1.97 6.5065,-5.9341 4.8231,-10.3734 -0.1715,0.3293 -0.3377,0.5762 -0.438,0.8497 -1.0554,2.9073 -3.1899,4.5879 -5.9762,5.7509 -2.8733,1.2 -5.8891,1.4071 -8.8891,1.6249 -3.7545,0.2708 -7.4405,0.7752 -10.8230795,2.4745 -3.60419,1.8108 -6.47223,4.4419 -7.69122103,8.4564 -2.82318897,9.2954 1.88916103,19.3873 10.11860053,23.7735 3.9367,2.0975 8.1926,3.5897 12.2849,5.4004 0.3773,0.1673 0.8469,0.6505 0.8733,1.0169 0.5699,7.482 1.0686,14.9667 1.6412,22.448699 0.0369,0.4938 0.4485,1.1709 0.876,1.3912 l 43.3188,28.5947 c 1.8813,0.808 3.6675,1.705 5.876,1.506 4.9339,-0.451 17.0605,-3.927 21.9602,-5.252 2.488101,-0.799 4.071101,-1.596 6.161101,-2.065 0.802,-0.181 1.638,-1.147 1.607,-2.186 -0.045,-1.362 -0.09,-2.984 -0.109,-4.349 -0.026,-1.911 -0.155,-7.598 -0.155,-10.7845 m 30.342,-1.5931 c -3.065,0.916 -12.831,4.3786 -14.775,4.5136 -0.528,0 -0.528,-1.062 -0.528,-1.858 0,-7.4347 -0.126,-8.7596 -0.335,-16.220299 -0.103,-3.6508 -3.784,-7.6015 -7.272,-8.4856 -3.955,-1.0037 -7.25,-0.0558 -10.377,2.5249 -3.535401,2.918 -3.944401,6.8076 -3.894201,10.8991 0.0527,4.550799 0.4432,15.324899 0.5198,17.488899 0.029,0.794 -0.1531,1.184 -1.066,1.24 -5.0105,1.051 -10.24,3.345 -15.3561,3.73 -0.7203,0.053 -0.9155,-0.228 -0.9656,-0.881 -0.5146,-6.646 -2.1161,-30.079399 -2.723,-35.113499 -0.3403,-2.8223 0.9472,-4.8189 2.2507,-6.9403 1.9841,-3.2286 22.469401,-33.515 25.757401,-38.0366 1.079,-1.4842 2.237,-2.91 3.379,-4.3888 0.175,0.1141 0.314,0.154 0.37,0.2495 0.448,0.7488 1.185,1.9701 2.127,3.5313 6.102,10.1079 20.873,34.4336 22.297,36.5046 1.153,1.678 0.729,3.5206 0.805,5.2623 l 0.583,23.590399 c 0.032,0.7408 0.101,1.978 -0.791,2.3895 z"
     fill="#000000"
     id="path2" />
  <path
     d="m 109.763,73.493771 c -1.755,-0.1991 -2.618,-0.9319 -3.346,-2.3763 -1.06,-2.1081 -0.739,-4.0782 0.151,-6.0881 0.517,-1.1655 0.934,-2.3842 1.554,-3.4914 0.942,-1.678 3.031,-1.7922 3.862,-0.069 1.043,2.1532 1.71,4.495 2.446,6.7863 0.122,0.3771 -0.15,0.9691 -0.398,1.3594 -0.639,1.001 -1.264,2.0498 -2.1,2.8702 -0.539,0.5283 -1.436,0.685 -2.172,1.0089 z"
     fill="#000000"
     id="path4" />
</svg>
