<svg viewBox="0 0 143 143" xmlns="http://www.w3.org/2000/svg">
 <path id="house" d="M105.49 102.43c-.12-2.38-.2-4.76-.17-7.15.03-1.8 2-3.37 4.06-3.41 1.85-.04 3.5 1.32 3.59 3.17.1 2.46 1 17.24 1.8 26.27.07.8 1.64.75 2.16.7 2.26-.21 4.96-1.23 7.34-1.76 5.54-2.12 10.16-3.38 15.3-5.05 2.25-.72 3.43-1.59 3.43-4.5 0-10.3-.57-28.89-.77-33.61a3.44 3.44 0 0 0-.38-1.53c-1.75-3.06-24.07-40.92-26.45-45.04a4.2 4.2 0 0 1-.43-1.9c-.06-1.81 0-3.63-.02-5.44-.02-1.48-.4-2.75-1.84-3.55a15.57 15.57 0 0 0-6.17-2.12c-3.14-.27-3.52.03-3.52 3.15v6.53c-.45-.05-.71-.04-.96-.1l-23.4-6.29c-.8-.2-.88-.68-.87-1.37.02-2.03.04-4.06-.07-6.1-.02-.5-.42-1.26-.85-1.46a42.26 42.26 0 0 0-6-2.28c-1.78-.48-3.48 1.12-3.49 2.96 0 1.37.02 2.74 0 4.11-.01.33-.07.74-.26.97-1.37 1.65-2.85 3.2-4.15 4.9-4.33 5.62-28.8 37.85-31.32 41.07-1.9 2.43-4.02 4.69-5.81 7.19-.84 1.16-1.5 1.19-2.6.67-2.43-1.14-4.89-2.18-7.31-3.3C11 65.68 7.57 61.7 6.85 55.72c-.43-3.53.68-6.54 3.75-8.6 2.84-1.94 6.17-2.54 9.41-3.22 3.43-.71 6.8-1.56 9.8-3.35 3.31-1.97 6.51-5.94 4.83-10.38-.17.33-.34.58-.44.85-1.05 2.91-3.19 4.6-5.97 5.75-2.88 1.2-5.9 1.41-8.9 1.63-3.75.27-7.43.77-10.82 2.47-3.6 1.81-6.47 4.45-7.69 8.46-2.82 9.3 1.9 19.39 10.12 23.77 3.94 2.1 8.2 3.6 12.29 5.4.37.17.84.65.87 1.02.57 7.48 1.07 14.97 1.64 22.45.04.5.45 1.17.88 1.4l43.31 28.59c1.89.8 3.67 1.7 5.88 1.5 4.93-.45 17.06-3.93 21.96-5.25 2.49-.8 4.07-1.6 6.16-2.07.8-.18 1.64-1.14 1.6-2.18-.04-1.36-.08-2.99-.1-4.35-.03-1.91-.15-7.6-.15-10.78m30.34-1.6c-3.07.92-12.83 4.38-14.78 4.52-.53 0-.53-1.07-.53-1.86 0-7.44-.12-8.76-.33-16.22-.1-3.65-3.78-7.6-7.27-8.49-3.96-1-7.25-.05-10.38 2.53-3.54 2.91-3.94 6.8-3.9 10.9.06 4.55.45 15.32.53 17.48.02.8-.16 1.19-1.07 1.24-5.01 1.06-10.24 3.35-15.36 3.73-.72.06-.91-.22-.96-.88-.52-6.64-2.12-30.08-2.73-35.11-.34-2.82.95-4.82 2.26-6.94 1.98-3.23 22.47-33.51 25.75-38.04 1.08-1.48 2.24-2.9 3.38-4.39.18.12.32.16.37.25l2.13 3.54c6.1 10.1 20.87 34.43 22.3 36.5 1.15 1.68.73 3.52.8 5.26l.58 23.6c.04.73.1 1.97-.79 2.38z"/>
 <path id="window" d="M109.76 73.5c-1.75-.2-2.61-.94-3.34-2.38-1.06-2.11-.74-4.08.15-6.1.52-1.16.93-2.37 1.55-3.48.94-1.68 3.03-1.8 3.86-.07 1.05 2.15 1.71 4.5 2.45 6.79.12.37-.15.96-.4 1.35-.64 1-1.26 2.05-2.1 2.87-.54.53-1.43.69-2.17 1.01z"/>
</svg>
