<svg width="738" height="185" viewBox="0 0 738 185" fill="none" xmlns="http://www.w3.org/2000/svg">
<path fill-rule="evenodd" clip-rule="evenodd" d="M0.055542 17.4444V167.278C0.055542 176.789 7.76618 184.5 17.2778 184.5H449.556C459.067 184.5 466.778 176.789 466.778 167.278C466.778 169.18 459.067 170.722 449.556 170.722H17.2778C15.3755 170.722 13.8333 169.18 13.8333 167.278V17.4444C13.8333 15.5421 15.3755 13.9999 17.2778 13.9999H449.556C459.067 13.9999 466.778 15.5421 466.778 17.4444C466.778 7.93282 459.067 0.222168 449.556 0.222168H17.2778C7.76619 0.222168 0.055542 7.93282 0.055542 17.4444Z" fill="black"/>
<path d="M40.08 141.444V40.8666H69.4267C75.397 40.8666 80.5867 42.0607 84.9955 44.4488C89.4044 46.7451 92.803 50.0059 95.1911 54.2311C97.5793 58.4562 98.7733 63.4162 98.7733 69.111C98.7733 76.1836 96.8444 82.154 92.9867 87.0222C89.1289 91.8903 83.8474 95.0133 77.1422 96.391L99.7378 141.444H88.9911L67.6355 97.0799H49.1733V141.444H40.08ZM49.1733 88.9511H69.4267C75.4889 88.9511 80.357 87.114 84.0311 83.4399C87.7052 79.7659 89.5422 74.9436 89.5422 68.9733C89.5422 62.9111 87.7052 58.0888 84.0311 54.5066C80.357 50.9244 75.4889 49.1333 69.4267 49.1333H49.1733V88.9511Z" fill="black"/>
<path d="M116.906 141.444L143.911 40.8666H155.76L182.764 141.444H173.533L166.231 113.338H133.302L126.137 141.444H116.906ZM135.368 105.484H164.164L154.52 68.6977C153.142 63.3703 152.04 58.9155 151.213 55.3333C150.478 51.7511 150.019 49.4088 149.835 48.3066C149.651 49.4088 149.146 51.7511 148.32 55.3333C147.493 58.9155 146.391 63.3703 145.013 68.6977L135.368 105.484Z" fill="black"/>
<path d="M228.039 141.444V49.1333H199.106V40.8666H265.79V49.1333H237.132V141.444H228.039Z" fill="black"/>
<path fill-rule="evenodd" clip-rule="evenodd" d="M719.944 0.222168H291.111V31.0844V26.0555V151.778V184.5H719.944C729.456 184.5 737.167 176.789 737.167 167.278V151.778V141.858V93.7457V83.8257V41.0044V31.0844V17.4444C737.167 7.93282 729.456 0.222168 719.944 0.222168ZM737.167 31.0844H683.566V151.778H737.167V141.858H694.478V93.7457H737.167V83.8257H694.478V41.0044H737.167V31.0844ZM291.111 151.778H304.219V100.524H331.995V151.778H356.795V31.0844H331.995V77.3777H304.219V31.0844H291.111V151.778ZM399.386 149.463C404.457 152.108 410.409 153.431 417.242 153.431C424.076 153.431 429.973 152.108 434.933 149.463C440.003 146.707 443.861 142.795 446.506 137.724C449.262 132.654 450.64 126.647 450.64 119.703V63.1591C450.64 56.2151 449.262 50.263 446.506 45.303C443.861 40.2328 440.003 36.3199 434.933 33.5644C429.973 30.8088 424.076 29.4311 417.242 29.4311C410.409 29.4311 404.457 30.8088 399.386 33.5644C394.426 36.3199 390.569 40.2328 387.813 45.303C385.168 50.263 383.845 56.2151 383.845 63.1591V119.703C383.845 126.647 385.168 132.654 387.813 137.724C390.569 142.795 394.426 146.707 399.386 149.463ZM433.776 137.394C429.918 141.582 424.407 143.676 417.242 143.676C410.078 143.676 404.512 141.582 400.544 137.394C396.686 133.205 394.757 127.308 394.757 119.703V63.1591C394.757 55.5537 396.741 49.6568 400.709 45.4684C404.677 41.2799 410.188 39.1857 417.242 39.1857C424.297 39.1857 429.808 41.2799 433.776 45.4684C437.744 49.6568 439.728 55.5537 439.728 63.1591V119.703C439.728 127.308 437.744 133.205 433.776 137.394ZM492.239 144.338C498.081 150.4 506.182 153.431 516.543 153.431C526.794 153.431 534.785 150.4 540.516 144.338C546.358 138.276 549.279 130.064 549.279 119.703V31.0844H538.367V119.703C538.367 127.198 536.493 133.095 532.746 137.394C528.998 141.582 523.597 143.676 516.543 143.676C509.379 143.676 503.868 141.582 500.01 137.394C496.262 133.095 494.388 127.198 494.388 119.703V31.0844H483.476V119.703C483.476 129.954 486.397 138.165 492.239 144.338ZM596.5 149.463C602.121 152.108 608.735 153.431 616.34 153.431C623.504 153.431 629.732 152.108 635.023 149.463C640.423 146.818 644.557 143.125 647.423 138.386C650.399 133.536 651.887 127.859 651.887 121.356C651.887 113.31 649.572 106.256 644.943 100.194C640.313 94.1315 633.92 89.8328 625.764 87.2977L610.884 82.6684C605.373 80.9048 601.074 77.9839 597.988 73.9057C594.902 69.7173 593.359 64.8675 593.359 59.3564C593.359 52.9635 595.398 48.0035 599.476 44.4764C603.554 40.9493 609.175 39.1857 616.34 39.1857C623.394 39.1857 629.015 41.1697 633.204 45.1377C637.392 49.1057 639.487 54.5066 639.487 61.3404H650.399C650.288 51.5306 647.202 43.7599 641.14 38.0284C635.078 32.2968 626.866 29.4311 616.505 29.4311C609.561 29.4311 603.499 30.6986 598.319 33.2337C593.248 35.7688 589.335 39.3511 586.58 43.9804C583.824 48.4995 582.447 53.9004 582.447 60.1831C582.447 68.119 584.651 75.0079 589.06 80.8497C593.579 86.5813 599.862 90.6595 607.908 93.0844L622.788 97.7137C628.519 99.3671 632.983 102.343 636.18 106.642C639.376 110.94 640.975 116.011 640.975 121.852C640.975 128.686 638.77 134.032 634.361 137.89C630.063 141.748 624.055 143.676 616.34 143.676C608.294 143.676 601.901 141.637 597.161 137.559C592.422 133.371 590.052 127.804 590.052 120.86H579.14C579.14 127.474 580.628 133.26 583.604 138.22C586.69 143.07 590.989 146.818 596.5 149.463Z" fill="black"/>
</svg>
