<svg xmlns="http://www.w3.org/2000/svg" viewBox="0 0 738 185">
 <path id="ratBorder" fill-rule="evenodd" d="M.06 17.4v150c0 9.5 7.7 17.2 17.2 17.2h283l-6.14-13.8h-276a3.44 3.44 0 0 1-3.45-3.44v-150c0-1.9 1.55-3.44 3.45-3.44h276l6.14-13.8h-283a17.2 17.2 0 0 0-17.2 17.2z" clip-rule="evenodd"/>
 <g id="rat">
  <path id="T" d="M228 141V48.7h-28.9v-8.27h66.7v8.26h-28.7v92.3H228z"/>
  <path id="A" d="m144 40.9-27 101h9.24l7.16-28.1h32.9l7.3 28.1h9.23l-27-101h-11.8zm5.93 7.44 14.3 57.2h-28.8z"/>
  <path id="R" d="M40.1 40.9v101h9.09V97.5h18.5l21.3 44.4h10.8l-22.6-45c6.71-1.37 12-4.5 15.8-9.37 3.85-4.87 5.78-10.8 5.78-17.9 0-5.69-1.19-10.6-3.57-14.9A24.55 24.55 0 0 0 85 44.95c-4.41-2.38-9.6-3.58-15.6-3.58H40.1zm9.09 8.26h20.3c6.06 0 10.9 1.79 14.6 5.38 3.67 3.58 5.5 8.4 5.5 14.5 0 5.97-1.83 10.8-5.51 14.5-3.67 3.67-8.54 5.51-14.6 5.51H49.27v-39.8z"/>
 </g>
 <g id="house">
  <path id="base" d="M291.8 0v30.7h13.09V77h27.8V30.7h24.8v121h-24.8v-51.3h-27.8v51.3h-13.1l.01 32.7h429c9.5 0 17.2-7.7 17.2-17.2v-15.5h-53.7v-121h53.65l.06-13.5C738 7.7 730.3 0 720.8 0zm325 28.55c10.3 0 18.54 2.9 24.6 8.6 6.06 5.7 9.15 13.5 9.25 23.3h-10.9c0-6.83-2.1-12.23-6.3-16.2-4.2-3.97-9.84-5.96-16.9-5.96-7.2 0-12.82 1.77-16.9 5.3-4.07 3.5-6.11 8.5-6.11 14.9a23.95 23.95 0 0 0 4.62 14.6c3.1 4.07 7.4 6.99 12.9 8.76l14.9 4.62c8.2 2.5 14.57 6.84 19.2 12.9 4.63 6.1 6.95 13.15 6.95 21.2 0 6.5-1.5 12.15-4.47 17a28.82 28.82 0 0 1-12.4 11.1c-5.3 2.65-11.54 3.97-18.7 3.97-7.6 0-14.18-1.32-19.8-3.97l.08-.09a30.18 30.18 0 0 1-12.9-11.2c-2.97-5-4.46-10.79-4.46-17.4h10.9c0 6.94 2.36 12.51 7.1 16.7 4.8 4.08 11.15 6.12 19.2 6.12 7.7 0 13.7-1.93 18-5.79 4.4-3.8 6.62-9.16 6.62-16 0-5.83-1.6-10.9-4.8-15.2-3.2-4.3-7.67-7.27-13.4-8.93l-14.9-4.63c-8-2.4-14.29-6.47-18.8-12.2-4.42-5.9-6.61-12.76-6.61-20.7 0-6.28 1.36-11.68 4.12-16.2a27.3 27.3 0 0 1 11.7-10.8c5.2-2.53 11.25-3.8 18.2-3.8zm-199.2.22c6.9 0 12.74 1.38 17.7 4.13a27.3 27.3 0 0 1 11.6 11.7c2.75 5 4.13 10.96 4.13 17.9V119c0 6.9-1.38 12.93-4.13 18a28.02 28.02 0 0 1-11.6 11.7c-5 2.65-10.86 3.97-17.7 3.97-6.8 0-12.73-1.32-17.8-3.97a28.53 28.53 0 0 1-11.6-11.7c-2.64-5-3.97-11.05-3.97-18V62.5c0-7 1.33-12.94 3.97-17.9a29.3 29.3 0 0 1 11.6-11.7c5-2.75 10.97-4.13 17.8-4.13zm66.42 1.57h10.9v88.6c0 7.5 1.87 13.4 5.62 17.7 3.8 4.19 9.33 6.29 16.5 6.29 7.05 0 12.45-2.1 16.2-6.28 3.74-4.3 5.62-10.2 5.62-17.7v-88.6h10.9v88.6c0 10.3-2.92 18.54-8.76 24.6-5.8 6.06-13.8 9.1-24 9.1-10.4 0-18.46-3.04-24.3-9.1l.08-.01c-5.84-6.1-8.76-14.4-8.76-24.6z"/>
  <path id="oCenter" d="M433.5 136.8c-3.86 4.2-9.37 6.29-16.5 6.29-7.16 0-12.7-2.1-16.7-6.29-3.85-4.18-5.78-10.1-5.78-17.7V62.6c0-7.6 1.98-13.5 5.95-17.7 3.97-4.18 9.48-6.27 16.5-6.27 7.06 0 12.6 2.09 16.5 6.28 3.96 4.19 5.95 10.1 5.95 17.7v56.5c0 7.6-1.99 13.5-5.95 17.7z"/>
  <path id="eBottom" d="M737.9 141.8h-42.7V93.7h42.7"/>
  <path id="eTop" d="M737.9 83.76h-42.7v-42.8h42.7"/>
 </g>
</svg>
