<svg width="143" height="124" viewBox="0 0 143 124" fill="none" xmlns="http://www.w3.org/2000/svg">
<path d="M105.488 92.9341C105.37 90.5525 105.285 88.1656 105.322 85.7813C105.349 83.9865 107.32 82.4094 109.378 82.3669C111.225 82.3297 112.887 83.6891 112.969 85.5371C113.074 87.9983 113.977 102.784 114.768 111.812C114.837 112.606 116.409 112.558 116.926 112.51C119.193 112.298 121.892 111.281 124.267 110.75C129.808 108.626 134.435 107.372 139.57 105.705C141.823 104.983 143 104.112 143 101.191C143 90.8977 142.433 72.3122 142.232 67.5861C142.211 67.0684 142.1 66.5002 141.847 66.0594C140.098 63.0035 117.776 25.1421 115.404 21.0188C115.093 20.4798 114.99 19.7629 114.969 19.1204C114.913 17.307 114.969 15.4936 114.945 13.6802C114.926 12.1986 114.557 10.9268 113.106 10.133C111.161 9.06564 109.182 8.21071 106.94 8.01423C103.795 7.74076 103.423 8.04344 103.42 11.1605C103.42 11.426 103.42 11.6915 103.42 11.957C103.42 13.8448 103.42 15.7299 103.42 17.692C102.969 17.6442 102.705 17.6522 102.462 17.5858C94.6601 15.4936 86.8607 13.3854 79.0534 11.3039C78.2671 11.0941 78.1774 10.6242 78.1853 9.9312C78.209 7.90006 78.2328 5.86628 78.1246 3.8378C78.0982 3.32272 77.6972 2.56602 77.2697 2.37486C75.312 1.50665 73.3252 0.643749 71.2672 0.0861833C69.4914 -0.394385 67.7896 1.20928 67.7843 3.04659C67.7817 4.41926 67.8002 5.78928 67.7738 7.16195C67.7685 7.49118 67.7105 7.89741 67.5152 8.13371C66.1537 9.78251 64.6735 11.3384 63.3701 13.0323C59.0403 18.6505 34.5736 50.883 32.0538 54.1037C30.1541 56.5304 28.0301 58.7872 26.2359 61.2856C25.3995 62.4486 24.7372 62.4778 23.6317 61.96C21.2122 60.8237 18.7531 59.7775 16.3284 58.6545C11.0039 56.1905 7.57118 52.1973 6.85087 46.2314C6.42343 42.7028 7.53424 39.6946 10.5975 37.621C13.4445 35.6934 16.769 35.088 20.0143 34.4136C23.4417 33.6994 26.8111 32.8498 29.8164 31.0576C33.1224 29.0876 36.3229 25.1235 34.6395 20.6842C34.468 21.0135 34.3018 21.2604 34.2015 21.5339C33.1461 24.4412 31.0116 26.1218 28.2253 27.2848C25.352 28.4848 22.3362 28.6919 19.3362 28.9097C15.5817 29.1805 11.8957 29.6849 8.51312 31.3842C4.90893 33.195 2.04089 35.8261 0.821899 39.8406C-2.00129 49.136 2.71106 59.2279 10.9405 63.6141C14.8772 65.7116 19.1331 67.2038 23.2254 69.0145C23.6027 69.1818 24.0723 69.665 24.0987 70.0314C24.6686 77.5134 25.1673 84.9981 25.7399 92.4801C25.7768 92.9739 26.1884 93.651 26.6159 93.8713L69.9347 122.466C71.816 123.274 73.6022 124.171 75.8107 123.972C80.7446 123.521 92.8712 120.045 97.7709 118.72C100.259 117.921 101.842 117.124 103.932 116.655C104.734 116.474 105.57 115.508 105.539 114.469C105.494 113.107 105.449 111.485 105.43 110.12C105.404 108.209 105.275 102.522 105.275 99.3355M135.617 97.7424C132.552 98.6584 122.786 102.121 120.842 102.256C120.314 102.256 120.314 101.194 120.314 100.398C120.314 92.9633 120.188 91.6384 119.979 84.1777C119.876 80.5269 116.195 76.5762 112.707 75.6921C108.752 74.6884 105.457 75.6363 102.33 78.217C98.7946 81.135 98.3856 85.0246 98.4358 89.1161C98.4885 93.6669 98.879 104.441 98.9556 106.605C98.9846 107.399 98.8025 107.789 97.8896 107.845C92.8791 108.896 87.6496 111.19 82.5335 111.575C81.8132 111.628 81.618 111.347 81.5679 110.694C81.0533 104.048 79.4518 80.6146 78.8449 75.5805C78.5046 72.7582 79.7921 70.7616 81.0956 68.6402C83.0797 65.4116 103.565 35.1252 106.853 30.6036C107.932 29.1194 109.09 27.6936 110.232 26.2148C110.407 26.3289 110.546 26.3688 110.602 26.4643C111.05 27.2131 111.787 28.4344 112.729 29.9956C118.831 40.1035 133.602 64.4292 135.026 66.5002C136.179 68.1782 135.755 70.0208 135.831 71.7625L136.414 95.3529C136.446 96.0937 136.515 97.3309 135.623 97.7424H135.617Z" fill="black"/>
<path d="M109.763 63.9938C108.008 63.7947 107.145 63.0619 106.417 61.6175C105.357 59.5094 105.678 57.5393 106.568 55.5294C107.085 54.3639 107.502 53.1452 108.122 52.038C109.064 50.36 111.153 50.2458 111.984 51.969C113.027 54.1222 113.694 56.464 114.43 58.7553C114.552 59.1324 114.28 59.7244 114.032 60.1147C113.393 61.1157 112.768 62.1645 111.932 62.9849C111.393 63.5132 110.496 63.6699 109.76 63.9938H109.763Z" fill="black"/>
</svg>
