<svg version="1.1" viewBox="0 0 738 185" xmlns="http://www.w3.org/2000/svg">
 <path id="ratBorder" d="M.06 17.4v150c0 9.5 7.7 17.2 17.2 17.2h283l-6.14-13.8h-276a3.44 3.44 0 0 1-3.45-3.44v-150c0-1.9 1.55-3.44 3.45-3.44h276l6.14-13.8h-283a17.2 17.2 0 0 0-17.2 17.2z" clip-rule="evenodd" fill-rule="evenodd"/>
 <path id="T" d="M228 141V48.7h-28.9v-8.27h66.7v8.26h-28.7v92.3H228z"/>
 <path id="A" d="m144 40.9-27 101h9.24l7.16-28.1h32.9l7.3 28.1h9.23l-27-101h-11.8zm5.93 7.44 14.3 57.2h-28.8l14.5-57.2z"/>
 <path id="R" d="M40.1 40.9v101h9.09V97.5h18.5l21.3 44.4h10.8l-22.6-45c6.71-1.37 12-4.5 15.8-9.37 3.85-4.87 5.78-10.8 5.78-17.9 0-5.69-1.19-10.6-3.57-14.9A24.55 24.55 0 0 0 85 44.95c-4.41-2.38-9.6-3.58-15.6-3.58H40.1zm9.09 8.26h20.3c6.06 0 10.9 1.79 14.6 5.38 3.67 3.58 5.5 8.4 5.5 14.5 0 5.97-1.83 10.8-5.51 14.5-3.67 3.67-8.54 5.51-14.6 5.51H49.27v-39.8z"/>
 <path id="house" d="M291 30.9V.2h429a17.2 17.2 0 0 1 17.2 17.2v150a17.2 17.2 0 0 1-17.2 17.2H291l-.01-32.7h13.1v-51.3h27.8v51.3h24.8v-121h-24.8v46.3h-27.8V30.9m433 0h-53.6v121h53.6v-9.92h-42.7v-48.1h42.7v-9.92h-42.7v-42.8h42.7zm-338 118c5.07 2.65 11 3.97 17.8 3.97 6.84 0 12.7-1.32 17.7-3.97 4.96-2.65 9-6.74 11.6-11.7 2.75-5.07 4.13-11.1 4.13-18V62.7c0-6.94-1.38-12.9-4.13-17.9a27.3 27.3 0 0 0-11.6-11.7c-4.96-2.75-10.8-4.13-17.7-4.13-6.83 0-12.8 1.38-17.8 4.13a29.28 29.28 0 0 0-11.6 11.7c-2.64 4.96-3.97 10.9-3.97 17.9v56.5c0 6.95 1.33 13 3.97 18a28.55 28.55 0 0 0 11.6 11.7zm34.4-12.1c-3.86 4.2-9.37 6.29-16.5 6.29-7.16 0-12.7-2.1-16.7-6.29-3.85-4.18-5.78-10.1-5.78-17.7V62.6c0-7.6 1.98-13.5 5.95-17.7 3.97-4.18 9.48-6.27 16.5-6.27 7.06 0 12.6 2.09 16.5 6.28 3.96 4.19 5.95 10.1 5.95 17.7v56.5c0 7.6-1.99 13.5-5.95 17.7zm58.5 6.95c5.84 6.06 13.9 9.1 24.3 9.1 10.2 0 18.2-3.04 24-9.1 5.84-6.06 8.76-14.3 8.76-24.6v-88.6h-10.9v88.6c0 7.5-1.88 13.4-5.62 17.7-3.75 4.18-9.15 6.28-16.2 6.28-7.17 0-12.7-2.1-16.5-6.29-3.75-4.3-5.62-10.2-5.62-17.7v-88.6h-10.9v88.6c0 10.2 2.92 18.5 8.76 24.6zm104 5.12c5.62 2.65 12.2 3.97 19.8 3.97 7.16 0 13.4-1.32 18.7-3.97a28.82 28.82 0 0 0 12.4-11.1c2.98-4.85 4.47-10.5 4.47-17 0-8.05-2.32-15.1-6.95-21.2-4.63-6.06-11-10.4-19.2-12.9l-14.9-4.62c-5.5-1.77-9.8-4.69-12.9-8.76a23.95 23.95 0 0 1-4.62-14.6c0-6.4 2.04-11.4 6.12-14.9 4.07-3.53 9.7-5.3 16.9-5.3 7.05 0 12.7 1.99 16.9 5.96s6.29 9.37 6.29 16.2h10.9c-.1-9.8-3.19-17.6-9.25-23.3s-14.3-8.6-24.6-8.6c-6.95 0-13 1.27-18.2 3.8a27.3 27.3 0 0 0-11.7 10.8c-2.76 4.52-4.13 9.92-4.13 16.2 0 7.94 2.2 14.8 6.61 20.7 4.52 5.73 10.8 9.8 18.8 12.2l14.9 4.63c5.73 1.66 10.2 4.63 13.4 8.93s4.8 9.37 4.8 15.2c0 6.84-2.21 12.2-6.62 16-4.3 3.86-10.3 5.79-18 5.79-8.05 0-14.4-2.04-19.2-6.12-4.74-4.19-7.1-9.76-7.1-16.7h-10.9c0 6.61 1.49 12.4 4.46 17.4 3.14 4.9 7.62 8.8 12.9 11.2z" clip-rule="evenodd" fill-rule="evenodd"/>
</svg>
